<svg width="1000" height="1000" viewBox="0 0 1000 1000" fill="none" xmlns="http://www.w3.org/2000/svg">
<rect width="1000" height="1000" fill="white"/>
<path d="M244 726.692H280.023V608.308H244V726.692Z" fill="black"/>
<path d="M306.389 726.692H342.413V696.932H413.973C439.449 696.932 447.076 676.657 447.076 658.997V648.859C447.076 625.641 438.8 608.308 404.562 608.308H306.389V726.692ZM342.413 637.741H395.312C406.184 637.741 410.079 642.319 410.079 650.331V654.909C410.079 661.941 406.833 667.5 398.395 667.5H342.413V637.741Z" fill="black"/>
<path d="M457.997 637.741H508.625V726.692H544.648V637.741H595.276V608.308H457.997V637.741Z" fill="black"/>
<path d="M608.849 696.115C608.849 721.786 621.993 728 654.771 728H698.421C746.29 728 757 722.768 757 690.882C757 656.381 744.019 652.947 688.036 653.111C649.416 653.274 645.035 652.947 645.035 642.646C645.035 636.269 650.552 633.489 658.666 633.489H698.584C715.135 633.489 716.108 637.086 716.108 645.753H752.132V641.992C752.132 621.226 748.238 607 706.697 607H656.394C610.959 607 609.012 623.515 609.012 644.935C609.012 674.041 615.178 680.581 669.375 680.581C715.784 680.581 720.003 681.235 720.003 691.536C720.003 700.693 712.214 701.511 704.587 701.511H660.451C650.065 701.511 645.035 700.53 644.873 687.939H608.849V696.115Z" fill="black"/>
<path fill-rule="evenodd" clip-rule="evenodd" d="M183 412C183 335.03 321.874 272.465 494.418 271.025V271H507.393V271.033C679.561 272.661 818 335.151 818 412C818 489.872 675.85 553 500.5 553C325.15 553 183 489.872 183 412ZM783.65 457.945C796.073 444.901 802.92 431.628 804.608 418.483H713.972C712.644 437.856 705.39 456.21 693.379 472.776L766.889 472.776C773.232 467.961 778.832 463.004 783.65 457.945ZM747.407 485.741H682.675C666.203 503.421 643.985 518.52 617.737 529.905C656.422 522.918 691.035 512.6 719.737 499.854C729.774 495.396 739.014 490.675 747.407 485.741ZM676.88 472.776C691.108 456.129 699.423 437.627 700.959 418.483H607.844C607.176 437.856 603.528 456.21 597.488 472.776H676.88ZM592.106 485.741L664.178 485.741C658.255 491.059 651.669 496.122 644.454 500.883C619.596 517.285 587.882 529.596 552.087 535.719C568.509 523.904 582.323 506.622 592.106 485.741ZM583.597 472.776C590.106 456.557 594.131 438.16 594.86 418.483H507.393V472.776L583.597 472.776ZM507.393 485.741H577.629C574.214 492.264 570.368 498.324 566.159 503.847C550.232 524.746 529.564 537.495 507.393 539.694V485.741ZM494.418 472.776V418.483H406.14C406.869 438.16 410.894 456.557 417.403 472.776H494.418ZM423.371 485.741H494.418V539.769C471.94 537.805 450.962 525.001 434.841 503.847C430.632 498.324 426.786 492.264 423.371 485.741ZM403.512 472.776C397.472 456.21 393.824 437.856 393.156 418.483H300.041C301.577 437.627 309.892 456.129 324.12 472.776H403.512ZM336.822 485.741L408.894 485.741C418.677 506.623 432.491 523.904 448.913 535.719C413.118 529.596 381.404 517.285 356.546 500.883C349.331 496.122 342.745 491.059 336.822 485.741ZM307.621 472.776C295.61 456.21 288.356 437.856 287.028 418.483H196.392C198.08 431.628 204.927 444.901 217.35 457.945C222.168 463.004 227.768 467.961 234.111 472.776L307.621 472.776ZM253.593 485.741H318.325C334.797 503.421 357.015 518.52 383.263 529.905C344.578 522.918 309.965 512.6 281.264 499.854C271.226 495.396 261.986 490.675 253.593 485.741ZM783.65 366.055C796.073 379.099 802.92 392.372 804.608 405.517H713.972C712.644 386.144 705.39 367.79 693.379 351.224L766.889 351.224C773.232 356.039 778.832 360.996 783.65 366.055ZM747.407 338.259C739.014 333.325 729.774 328.604 719.737 324.146C691.035 311.4 656.422 301.082 617.737 294.095C643.985 305.48 666.203 320.579 682.675 338.259L747.407 338.259ZM664.178 338.259C658.255 332.941 651.669 327.878 644.454 323.117C619.596 306.715 587.882 294.404 552.087 288.281C568.509 300.096 582.323 317.378 592.106 338.259L664.178 338.259ZM597.488 351.224C603.528 367.79 607.176 386.144 607.844 405.517H700.959C699.423 386.373 691.108 367.871 676.88 351.224L597.488 351.224ZM583.597 351.224C590.106 367.443 594.131 385.84 594.86 405.517H507.393V351.224L583.597 351.224ZM406.14 405.517H494.418V351.224L417.403 351.224C410.894 367.443 406.869 385.84 406.14 405.517ZM577.629 338.259L507.393 338.259V284.306C529.564 286.505 550.232 299.254 566.159 320.153C570.368 325.676 574.214 331.736 577.629 338.259ZM494.418 338.259V284.231C471.94 286.195 450.962 298.999 434.841 320.153C430.632 325.676 426.786 331.736 423.371 338.259L494.418 338.259ZM408.894 338.259C418.677 317.378 432.491 300.096 448.913 288.281C413.118 294.404 381.404 306.715 356.546 323.117C349.331 327.878 342.745 332.941 336.822 338.259L408.894 338.259ZM324.12 351.224C309.892 367.871 301.577 386.373 300.041 405.517H393.156C393.824 386.144 397.472 367.79 403.512 351.224L324.12 351.224ZM307.621 351.224C295.61 367.79 288.356 386.144 287.028 405.517H196.392C198.08 392.372 204.927 379.099 217.35 366.055C222.168 360.996 227.768 356.039 234.111 351.224L307.621 351.224ZM318.325 338.259C334.797 320.579 357.015 305.48 383.263 294.095C344.578 301.082 309.965 311.4 281.264 324.146C271.226 328.604 261.986 333.325 253.593 338.259L318.325 338.259Z" fill="black"/>
</svg>
